<svg xmlns="http://www.w3.org/2000/svg" viewBox="0 0 106.43 80.27"><defs><style>.cls-1,.cls-2,.cls-4{fill:#fff;}.cls-2,.cls-3{stroke:#fff;stroke-miterlimit:10;stroke-width:0.54px;}.cls-3{fill:none;}.cls-4{font-size:21.59px;font-family:MontserratAlternates-Regular, Montserrat Alternates;}</style></defs><g id="Layer_2" data-name="Layer 2"><g id="Layer_1-2" data-name="Layer 1"><path class="cls-1" d="M26.09,5.24a13.85,13.85,0,0,1,9.83,4.07L52.46,25.85,35.91,42.39,9.55,16l6.72-6.72a13.81,13.81,0,0,1,9.82-4.07m0-.54a14.38,14.38,0,0,0-10.2,4.23L8.79,16,53.18,60.42l0,0L36,43.12,53.22,25.85,36.3,8.93A14.39,14.39,0,0,0,26.09,4.7Z"/><path class="cls-1" d="M80.34,4.37a11.69,11.69,0,0,1,8.33,3.45L96.88,16,53.25,59.66,36.71,43.12,72,7.82a11.69,11.69,0,0,1,8.33-3.45m0-.54a12.27,12.27,0,0,0-8.71,3.61L36,43.12,53.22,60.39l0,0L97.64,16,89.05,7.44a12.27,12.27,0,0,0-8.71-3.61Z"/><path class="cls-2" d="M66.79,12.28,53.22,25.85,38.58,11.22a13.65,13.65,0,0,1,1.11-1,19.61,19.61,0,0,1,24.56-.41A17.74,17.74,0,0,1,66.79,12.28Z"/><path class="cls-3" d="M65.78,7.8a19.47,19.47,0,0,0-27.14,0"/><path class="cls-3" d="M43.48,2.29a19.85,19.85,0,0,1,17.45,0"/><text class="cls-4" transform="translate(0 74.61)">i vacation</text></g></g></svg>